<?xml version="1.0" encoding="utf-8"?>
<!-- Generator: Adobe Illustrator 22.0.1, SVG Export Plug-In . SVG Version: 6.00 Build 0)  -->
<svg version="1.1" id="Layer_1" xmlns="http://www.w3.org/2000/svg" xmlns:xlink="http://www.w3.org/1999/xlink" x="0px" y="0px"
	 viewBox="0 0 42 42" style="enable-background:new 0 0 42 42;" xml:space="preserve">
<g>
	<path class="st0" d="M32.7,8.6c0-0.7-0.3-1.4-0.8-1.8c-0.5-0.5-1.2-0.7-1.9-0.7l-0.6,0l3.5,6.8L32.7,8.6z"/>
	<path class="st0" d="M30.8,30.3c1.5-0.1,2.6-1.3,2.5-2.7l0-0.6l-6.8,3.5L30.8,30.3z"/>
	<path class="st0" d="M15.3,6.6l-4.3,0.2c-0.4,0-0.7,0.1-1.1,0.3C9,7.5,8.5,8.5,8.5,9.5l0,0.6L15.3,6.6z"/>
	<path class="st0" d="M36,21.5L27.4,4.6c-0.7-1.3-2.3-1.8-3.6-1.2L7,12c-1.3,0.7-1.8,2.3-1.2,3.6l8.6,16.9c0.7,1.3,2.3,1.8,3.6,1.2
		L34.9,25C36.2,24.3,36.7,22.8,36,21.5z M23.4,11.5c0-0.2,0.2-0.4,0.4-0.4c0.2,0,0.4,0.2,0.4,0.4v1.2c0,0.2-0.2,0.4-0.4,0.4
		c-0.2,0-0.4-0.2-0.4-0.4V11.5z M19.9,12.7c0.2-0.2,0.4-0.2,0.5,0l0.8,0.8c0.2,0.2,0.2,0.4,0,0.5c-0.1,0.1-0.2,0.1-0.3,0.1
		s-0.2,0-0.3-0.1l-0.8-0.8C19.8,13.1,19.8,12.9,19.9,12.7z M18.7,16.2h1.2c0.2,0,0.4,0.2,0.4,0.4S20.2,17,19.9,17h-1.2
		c-0.2,0-0.4-0.2-0.4-0.4S18.5,16.2,18.7,16.2z M15.1,25.9l-0.8-0.8l6.9-6.9l0.8,0.8L15.1,25.9z M24.1,21.6c0,0.2-0.2,0.4-0.4,0.4
		c-0.2,0-0.4-0.2-0.4-0.4v-1.1c0-0.2,0.2-0.4,0.4-0.4c0.2,0,0.4,0.2,0.4,0.4V21.6z M22.5,18.5l-0.8-0.8l1.8-1.8l0.8,0.8L22.5,18.5z
		 M26.3,13.6l0.8-0.8c0.2-0.2,0.4-0.2,0.6,0c0.2,0.2,0.2,0.4,0,0.5l-0.8,0.8c-0.1,0.1-0.2,0.1-0.3,0.1c-0.1,0-0.2,0-0.3-0.1
		C26.1,13.9,26.1,13.7,26.3,13.6z M27.7,20.5c-0.1,0.1-0.2,0.1-0.3,0.1s-0.2,0-0.3-0.1l-0.8-0.8c-0.2-0.2-0.1-0.4,0-0.5
		c0.2-0.2,0.4-0.2,0.5,0l0.8,0.8C27.8,20.1,27.8,20.3,27.7,20.5z M28.9,17h-1.2c-0.2,0-0.4-0.2-0.4-0.4s0.2-0.4,0.4-0.4h1.2
		c0.2,0,0.4,0.2,0.4,0.4S29.1,17,28.9,17z"/>
	<path class="st0" d="M9.2,28.4c0,1.5,1.3,2.6,2.7,2.6l0.6,0L9,24.1L9.2,28.4z"/>
</g>
</svg>
